# File created by Blade
# Date/Time:  Tue Sep 23 19:18:47 2014
# Frame Rate: 120.000 fps
#------------------------------------------------------
:FULLY-SPECIFIED
:DEGREES
1542
root 2.725382 34.049907 0.135286 126.982289 -1.961617 -25.910009
Spine -78.654155 -3.983663 25.266909
Head -35.527808 17.454586 36.708158
LeftShoulder -21.793798 27.204685 36.322592
LeftArm 109.109586 -59.788457 -110.815663
LeftForeArm 8.103414 0.000000 93.332407
LeftHand -64.720415 -0.000000 9.542072
LeftHandThumb1 -26.253704 0.000000 33.147579
RightShoulder -31.217555 -34.188906 -10.250970
RightArm 41.645734 69.166007 95.656238
RightForeArm 37.121938 0.000000 22.579101
RightHand 5.395626 -0.000000 -12.098153
RightHandThumb1 -24.326973 -0.000000 -32.862282
LeftUpLeg -119.677012 23.894056 -4.464766
LeftLeg -6.717487 -0.000000 0.000000
LeftFoot 2.905413 -14.905780 0.785229
LeftToeBase 4.887624 -0.000000 -0.000000
RightUpLeg -1.200093 10.710352 -34.316520
RightLeg 69.929943 -0.000000 -0.000000
RightFoot 34.604935 8.448989 1.384181
RightToeBase 42.890359 -0.000000 -0.000000
1543
root 2.718202 34.028055 0.145546 126.531390 -1.986935 -25.873525
Spine -78.396563 -4.139651 25.254739
Head -35.318347 17.436642 36.623935
LeftShoulder -21.668398 27.136725 36.416441
LeftArm 108.489326 -59.718460 -110.292702
LeftForeArm 8.142475 0.000000 93.391904
LeftHand -64.680038 0.000000 9.635553
LeftHandThumb1 -26.253704 0.000000 33.147579
RightShoulder -31.300292 -34.271328 -10.096655
RightArm 42.034441 69.130170 96.089573
RightForeArm 37.397764 -0.000000 22.631748
RightHand 5.581327 -0.000000 -12.119766
RightHandThumb1 -24.326973 -0.000000 -32.862282
LeftUpLeg -119.054254 23.935464 -4.044109
LeftLeg -6.718589 -0.000000 0.000000
LeftFoot 2.653008 -14.479272 1.487938
LeftToeBase 4.426460 -0.000000 -0.000000
RightUpLeg -0.972741 10.746966 -34.285402
RightLeg 69.969173 -0.000000 -0.000000
RightFoot 34.573188 8.479148 1.450192
RightToeBase 42.915611 -0.000000 -0.000000
1544
root 2.706574 34.012876 0.155493 126.180445 -1.938871 -25.870318
Spine -78.211778 -4.237174 25.318450
Head -35.041583 17.373331 36.666431
LeftShoulder -21.568570 27.214750 36.520950
LeftArm 108.112065 -59.617243 -110.031359
LeftForeArm 8.198461 0.000000 93.439449
LeftHand -64.576456 -0.000000 9.669277
LeftHandThumb1 -26.253704 0.000000 33.147579
RightShoulder -31.291407 -34.340859 -9.940591
RightArm 42.123524 69.087719 96.159043
RightForeArm 37.839866 -0.000000 22.557049
RightHand 5.780804 -0.000000 -12.264012
RightHandThumb1 -24.326973 -0.000000 -32.862282
LeftUpLeg -118.531498 24.085003 -3.577649
LeftLeg -6.715690 -0.000000 0.000000
LeftFoot 2.481935 -14.022201 2.076348
LeftToeBase 3.924792 -0.000000 -0.000000
RightUpLeg -0.908767 10.722832 -34.208561
RightLeg 70.063378 -0.000000 -0.000000
RightFoot 34.585067 8.191924 1.637585
RightToeBase 42.625325 -0.000000 -0.000000
1545
root 2.691042 34.002939 0.163821 125.866533 -1.844965 -25.933650
Spine -78.026004 -4.277635 25.378384
Head -34.761684 17.321068 36.773778
LeftShoulder -21.472046 27.370769 36.600588
LeftArm 107.967353 -59.513992 -109.948273
LeftForeArm 8.212914 -0.000000 93.453092
LeftHand -64.517203 -0.000000 9.775451
LeftHandThumb1 -26.253704 0.000000 33.147579
RightShoulder -31.281278 -34.413848 -9.760286
RightArm 42.264627 69.099329 96.265353
RightForeArm 38.155421 -0.000000 22.384444
RightHand 5.854220 -0.000000 -12.228550
RightHandThumb1 -24.326973 -0.000000 -32.862282
LeftUpLeg -118.020269 24.375221 -3.048766
LeftLeg -6.716885 -0.000000 0.000000
LeftFoot 2.343648 -13.490433 2.599213
LeftToeBase 3.460112 -0.000000 -0.000000
RightUpLeg -0.959206 10.737777 -34.140565
RightLeg 70.230389 -0.000000 -0.000000
RightFoot 34.380881 8.228073 1.511647
RightToeBase 42.801075 -0.000000 -0.000000
1546
root 2.671473 33.998610 0.174370 125.601167 -1.726181 -26.065187
Spine -77.838672 -4.256643 25.477910
Head -34.502480 17.431780 36.848070
LeftShoulder -21.502299 27.528320 36.556482
LeftArm 107.977120 -59.335292 -109.888487
LeftForeArm 8.320727 0.000000 93.385977
LeftHand -64.538799 -0.000000 9.786276
LeftHandThumb1 -26.253704 0.000000 33.147579
RightShoulder -31.268755 -34.460946 -9.586538
RightArm 42.216837 69.042909 96.210602
RightForeArm 38.488117 0.000000 22.233215
RightHand 6.134310 -0.000000 -11.970838
RightHandThumb1 -24.326973 -0.000000 -32.862282
LeftUpLeg -117.565677 24.730588 -2.597114
LeftLeg -6.726091 -0.000000 0.000000
LeftFoot 2.236465 -13.016503 2.946614
LeftToeBase 3.124448 -0.000000 -0.000000
RightUpLeg -1.127755 10.729426 -34.096548
RightLeg 70.450415 -0.000000 -0.000000
RightFoot 34.230738 8.165170 1.397309
RightToeBase 42.789436 -0.000000 -0.000000
1547
root 2.653468 33.990807 0.184194 125.263218 -1.685364 -26.147963
Spine -77.626799 -4.346924 25.571710
Head -34.231204 17.413304 36.984837
LeftShoulder -21.550226 27.636656 36.483641
LeftArm 107.912354 -59.207465 -109.718238
LeftForeArm 8.421437 0.000000 93.305759
LeftHand -64.636730 0.000000 9.710405
LeftHandThumb1 -26.253704 0.000000 33.147579
RightShoulder -31.178821 -34.454884 -9.488242
RightArm 42.002804 69.083904 96.068778
RightForeArm 38.727812 0.000000 22.134575
RightHand 6.218348 -0.000000 -11.527635
RightHandThumb1 -24.326973 -0.000000 -32.862282
LeftUpLeg -117.021229 24.949065 -2.184655
LeftLeg -6.779998 -0.000000 0.000000
LeftFoot 2.195228 -12.567834 3.927737
LeftToeBase 1.858486 -0.000000 -0.000000
RightUpLeg -1.167844 10.645455 -34.066935
RightLeg 70.664069 -0.000000 -0.000000
RightFoot 34.178319 8.018793 1.466840
RightToeBase 42.705768 -0.000000 -0.000000
1548
root 2.635365 33.986513 0.193049 124.991761 -1.674027 -26.228721
Spine -77.483417 -4.428939 25.598314
Head -33.964252 17.338795 37.140566
LeftShoulder -21.507869 27.657921 36.491307
LeftArm 107.663437 -59.186565 -109.405905
LeftForeArm 8.458194 -0.000000 93.221319
LeftHand -64.634198 -0.000000 9.754472
LeftHandThumb1 -26.253704 0.000000 33.147579
RightShoulder -31.155485 -34.417282 -9.416870
RightArm 41.728880 69.132810 95.968382
RightForeArm 39.041532 -0.000000 22.112168
RightHand 6.354092 -0.000000 -11.326363
RightHandThumb1 -24.326973 -0.000000 -32.862282
LeftUpLeg -116.552617 25.132230 -1.877660
LeftLeg -6.850783 -0.000000 0.000000
LeftFoot 2.022326 -12.244084 4.423690
LeftToeBase 2.079859 -0.000000 -0.000000
RightUpLeg -1.260869 10.434169 -34.076219
RightLeg 70.910674 -0.000000 -0.000000
RightFoot 34.127571 7.889516 1.443049
RightToeBase 42.566382 -0.000000 -0.000000
1549
root 2.624868 33.975018 0.202726 124.629409 -1.808983 -26.154846
Spine -77.336215 -4.703733 25.648212
Head -33.719751 17.319374 37.220847
LeftShoulder -21.553420 27.679861 36.384327
LeftArm 107.411929 -59.165230 -109.057820
LeftForeArm 8.453072 -0.000000 93.115901
LeftHand -64.579465 -0.000000 9.829909
LeftHandThumb1 -26.253704 0.000000 33.147579
RightShoulder -31.185966 -34.398954 -9.352079
RightArm 41.822013 69.152796 96.280292
RightForeArm 39.475919 -0.000000 22.167789
RightHand 6.574367 -0.000000 -11.234657
RightHandThumb1 -24.326973 -0.000000 -32.862282
LeftUpLeg -115.969972 25.054594 -1.595789
LeftLeg -6.972436 -0.000000 0.000000
LeftFoot 1.784004 -11.909656 5.012990
LeftToeBase 2.471959 -0.000000 -0.000000
RightUpLeg -1.097919 10.057821 -34.092036
RightLeg 71.068824 -0.000000 -0.000000
RightFoot 34.131228 7.880331 1.357136
RightToeBase 42.494721 -0.000000 -0.000000
1550
root 2.609248 33.970818 0.212781 124.367062 -1.869264 -26.202050
Spine -77.221393 -4.829989 25.695652
Head -33.480451 17.287335 37.313147
LeftShoulder -21.555854 27.663932 36.330247
LeftArm 107.086285 -59.221796 -108.676947
LeftForeArm 8.420478 0.000000 92.997554
LeftHand -64.505689 -0.000000 9.903750
LeftHandThumb1 -26.253704 0.000000 33.147579
RightShoulder -31.255162 -34.397910 -9.296175
RightArm 42.245568 69.221523 97.001632
RightForeArm 39.674333 -0.000000 22.219823
RightHand 7.041240 0.000000 -11.077021
RightHandThumb1 -24.326973 -0.000000 -32.862282
LeftUpLeg -115.506545 25.157314 -1.351169
LeftLeg -7.063326 -0.000000 0.000000
LeftFoot 1.725066 -11.616507 5.147114
LeftToeBase 2.431304 -0.000000 -0.000000
RightUpLeg -1.129021 9.705488 -34.130278
RightLeg 71.312965 -0.000000 -0.000000
RightFoot 34.059747 7.867668 1.269630
RightToeBase 42.367183 -0.000000 -0.000000
1551
root 2.585762 33.973479 0.223544 124.183631 -1.826134 -26.385437
Spine -77.101325 -4.786340 25.713838
Head -33.248622 17.219008 37.388364
LeftShoulder -21.527246 27.645986 36.305910
LeftArm 106.803881 -59.294881 -108.342708
LeftForeArm 8.447677 -0.000000 92.866455
LeftHand -64.443160 -0.000000 9.944988
LeftHandThumb1 -26.253704 0.000000 33.147579
RightShoulder -31.508082 -34.431243 -9.161609
RightArm 43.148562 69.241711 98.207244
RightForeArm 40.060718 -0.000000 22.250544
RightHand 7.405083 -0.000000 -11.081763
RightHandThumb1 -24.326973 -0.000000 -32.862282
LeftUpLeg -115.132565 25.482176 -1.108991
LeftLeg -7.136047 -0.000000 0.000000
LeftFoot 1.636428 -11.343858 5.197446
LeftToeBase 2.513489 -0.000000 -0.000000
RightUpLeg -1.365145 9.439452 -34.147462
RightLeg 71.622096 -0.000000 -0.000000
RightFoot 33.999113 7.844273 1.273413
RightToeBase 42.198337 -0.000000 -0.000000
1552
root 2.569399 33.971508 0.233756 123.927603 -1.882931 -26.484154
Spine -76.957665 -4.867293 25.704845
Head -33.050096 17.123518 37.430524
LeftShoulder -21.495929 27.634986 36.280133
LeftArm 106.496498 -59.388064 -108.047916
LeftForeArm 8.456330 -0.000000 92.791065
LeftHand -64.349741 0.000000 10.027965
LeftHandThumb1 -26.253704 0.000000 33.147579
RightShoulder -31.724834 -34.563125 -8.991283
RightArm 43.907173 69.199477 99.176578
RightForeArm 40.620795 -0.000000 22.117296
RightHand 7.756361 -0.000000 -10.952211
RightHandThumb1 -24.326973 -0.000000 -32.862282
LeftUpLeg -114.657852 25.672118 -0.836832
LeftLeg -7.215703 -0.000000 0.000000
LeftFoot 1.596543 -11.050514 5.238812
LeftToeBase 2.418466 -0.000000 -0.000000
RightUpLeg -1.429779 9.081724 -34.191560
RightLeg 71.862512 -0.000000 -0.000000
RightFoot 33.965788 7.948648 1.251086
RightToeBase 42.205928 -0.000000 -0.000000
1553
root 2.556199 33.967850 0.243276 123.625248 -1.962960 -26.519056
Spine -76.790136 -5.013822 25.707994
Head -32.868432 17.018300 37.460378
LeftShoulder -21.457722 27.627705 36.263368
LeftArm 106.192892 -59.472933 -107.808380
LeftForeArm 8.469464 -0.000000 92.766823
LeftHand -64.291615 -0.000000 10.092811
LeftHandThumb1 -26.253704 0.000000 33.147579
RightShoulder -31.921703 -34.756684 -8.769678
RightArm 44.580787 69.174147 99.970292
RightForeArm 41.442028 -0.000000 21.836868
RightHand 8.218847 -0.000000 -10.667798
RightHandThumb1 -24.326973 -0.000000 -32.862282
LeftUpLeg -114.119406 25.809443 -0.469881
LeftLeg -7.272652 -0.000000 0.000000
LeftFoot 1.575048 -10.702635 5.378977
LeftToeBase 2.274367 -0.000000 -0.000000
RightUpLeg -1.399671 8.729081 -34.188524
RightLeg 72.075819 -0.000000 -0.000000
RightFoot 34.003876 8.027894 1.406215
RightToeBase 42.150806 -0.000000 -0.000000
1554
root 2.542286 33.967369 0.255557 123.412129 -2.033823 -26.614650
Spine -76.674607 -5.078616 25.701021
Head -32.696831 16.928862 37.475962
LeftShoulder -21.394673 27.618228 36.273921
LeftArm 105.898092 -59.610666 -107.632214
LeftForeArm 8.453467 -0.000000 92.760403
LeftHand -64.271628 0.000000 10.077181
LeftHandThumb1 -26.253704 0.000000 33.147579
RightShoulder -32.098611 -34.944453 -8.583428
RightArm 45.024623 69.115074 100.489442
RightForeArm 42.046650 0.000000 21.447994
RightHand 8.473838 -0.000000 -10.205470
RightHandThumb1 -24.326973 -0.000000 -32.862282
LeftUpLeg -113.678446 25.995801 -0.181393
LeftLeg -7.332835 -0.000000 0.000000
LeftFoot 1.557178 -10.349196 5.751372
LeftToeBase 1.887554 -0.000000 -0.000000
RightUpLeg -1.490602 8.369171 -34.207732
RightLeg 72.311676 -0.000000 -0.000000
RightFoot 34.045116 8.043209 1.498875
RightToeBase 42.108577 -0.000000 -0.000000
